<?xml version="1.0" encoding="UTF-8"?>
<!DOCTYPE svg PUBLIC "-//W3C//DTD SVG 1.1//EN" "http://www.w3.org/Graphics/SVG/1.1/DTD/svg11.dtd">
<!-- Creator: CorelDRAW -->
<svg xmlns="http://www.w3.org/2000/svg" xml:space="preserve" width="0.333335in" height="0.333335in" style="shape-rendering:geometricPrecision; text-rendering:geometricPrecision; image-rendering:optimizeQuality; fill-rule:evenodd; clip-rule:evenodd"
viewBox="0 0 0.0804443 0.0804443"
 xmlns:xlink="http://www.w3.org/1999/xlink">
 <defs>
  <style type="text/css">
   <![CDATA[
    .fil4 {fill:none}
    .fil0 {fill:#FEFEFE}
    .fil1 {fill:#050202}
    .fil3 {fill:#212121}
    .fil2 {fill:white}
   ]]>
  </style>
   <clipPath id="id0">
    <path d="M-0 0l0.0804443 0 0 0.0804443 -0.0804443 0 0 -0.0804443z"/>
   </clipPath>
 </defs>
 <g id="Layer_x0020_1">
  <metadata id="CorelCorpID_0Corel-Layer"/>
  <polygon class="fil0" points="-0,0 0.0804443,0 0.0804443,0.0804443 -0,0.0804443 "/>
  <g style="clip-path:url(#id0)">
   <g id="_742596112">
    <g>
     <path id="_7413187601" class="fil1" d="M0.00925993 0.0659692c-0.00121046,0.000230881 -0.00177769,-2.85038e-005 -0.00215869,0.00203422 -0.00022898,0.00123706 0.000736348,0.00146985 0.00223375,0.00178434 0.0030385,0.000637535 0.00284563,0.000112115 0.00658437,0.0011563 0.00044846,-0.00037625 0.00128077,-0.00196201 0.00161236,-0.00255394l-0.000732547 -0.00067744c0.000175773,-0.00100238 0.00163802,-0.00572641 0.00203707,-0.00694352 0.000491215,0.00309741 0.00103659,0.00609791 0.00145559,0.00920862l0.000387651 0.00323138c0.000285038,0.000247983 0.000809507,0.000405704 0.00126462,0.000547273l0.00428602 0.00126842c0.00220144,0.00060428 0.00392022,0.000823759 0.00613306,0.00118386 0.00531025,0.000864615 0.0119127,-0.000929223 0.0172761,-0.00240857 0.0030499,-0.000841812 0.00965233,-0.00274776 0.0118671,-0.00460526 0.00151735,-0.00127222 0.00130262,1.23516e-005 0.00108219,-0.00273541l-0.00067934 -0.00762761c0.000359148,0.000326843 0.00136723,0.00197436 0.00170073,0.00248743 -0.000369599,0.000280287 -0.000849413,0.000218529 -0.000665088,0.000914971 0.000104514,0.000392402 0.00205512,0.00232116 0.00239717,0.00268031 0.00045511,-4.94066e-005 0.000358198,-6.93592e-005 0.00060428,-0.000366749 0.00249218,-0.00300525 0.00664898,-0.00132923 0.00766657,-0.00420431 0.000327794,-0.000929223 -1.23516e-005,-0.00159621 -0.000886468,-0.0019012 -0.00131117,-0.000457961 -2.85038e-006,-0.000243232 -0.00194396,-0.00504137 -0.00113065,-0.00279527 -0.00258434,-0.00476583 -0.00373875,-0.00802952 -0.0018689,-0.00528365 -0.00244182,-0.00910031 -0.00385371,-0.014306 -0.00140429,-0.00518009 -0.00289693,-0.00872976 -0.00445894,-0.0135459 -0.000956777,-0.00295014 -0.00134348,-0.00363708 -0.00367034,-0.00491785 -0.000636584,-0.000350597 -0.00123421,-0.000552973 -0.00184514,-0.000889318 -0.00243517,-0.00133968 -0.00291784,-0.00256819 -0.0048713,-0.00341285 -0.000279337,-0.000121616 -0.000864615,-0.00022328 -0.00103279,-0.000309741 -0.000295489,-0.00015202 -0.000354397,-0.000649886 -0.000522569,-0.000946326 -0.000940625,-0.00165417 -0.00195156,-0.00124467 -0.00348601,-0.00204752 -0.00160096,-0.000837061 -0.00239907,-0.000840862 -0.00441714,-7.60101e-006 -0.00124181,0.000513068 -0.00323328,0.00111355 -0.00479339,0.00129122 -0.00211213,0.000239432 -0.00307271,0.000276487 -0.00509743,7.506e-005 -0.000840862,-8.45612e-005 -0.0026138,-0.000969129 -0.00435538,0.000654637 -0.000741098,0.000690742 -0.00110785,0.00165227 -0.00139193,0.0026442 -0.000171023,0.000595729 -7.98106e-005,0.000514018 -0.000626133,0.000782904 -0.0037663,0.0018575 -0.00716015,0.00446179 -0.00871836,0.00831455 -0.0011373,0.00281427 -0.00120761,0.00560954 -0.00166557,0.00890173 -0.000410454,0.00294729 -0.000696442,0.00624328 -0.00105369,0.00931409 -0.000190025,0.00163422 -0.000310691,0.00295489 -0.000506417,0.00462331 -8.64615e-005,0.000736348 -0.000177674,0.00161806 -0.000271736,0.00234871 -0.00060618,0.00471643 -0.00131402,0.0121892 -0.00133398,0.016764 -3.8005e-006,0.000866515 6.27083e-005,0.00177389 4.75063e-005,0.00259289 -1.61521e-005,0.00090357 0.000133018,0.00178434 0.000140619,0.00267365z"/>
     <path id="_741316072" class="fil2" d="M0.00986516 0.0660233c0.00194586,-0.000104514 0.00455205,0.000685991 0.00641335,0.00136723 5.89078e-005,-0.000547273 0.00037435,-0.00143754 0.000549173,-0.00203042l0.00114395 -0.00403804c0.00090452,-0.00286938 0.00060618,-0.00133683 8.55114e-005,-0.00513638 -0.000963428,-0.00703283 -0.000245133,-0.010287 -0.00067459,-0.0161502 -9.97632e-005,-0.00136723 -0.000797156,-0.00719435 -0.00107269,-0.00859959 -0.00022803,-0.0011601 -0.00108029,-0.00820719 -0.000881717,-0.00917347l0.000507367 -0.00125512c0.000157721,0.000243232 0.000144419,0.00323898 0.000161521,0.00381951l0.000443709 0.00431547c0.00365989,-0.000141569 0.00565325,-0.000175773 0.00929508,-0.00103944 0.00184705,-0.000438958 0.00160571,8.17108e-005 0.0018936,0.00165892 0.000336345,0.0018518 0.00124752,0.00630694 0.00133778,0.00799721 -0.000651787,0.000354397 -0.00158481,0.000612831 -0.00288268,0.00136343 -0.00320573,0.0018556 -0.00198671,0.00181854 -0.00555919,0.00101949l-0.00271166 -0.000632784c0.000466512,0.00445704 -0.000105464,0.00857679 0.000401903,0.0130414 0.000571976,0.00503472 0.0011563,0.00860244 0.00199336,0.0135336 0.000386701,-0.000169122 0.00111545,-0.00082851 0.0014765,-0.0011221 0.00260525,-0.00211593 0.00520099,-0.00362473 0.0079231,-0.00545087 0.00145654,-0.00097673 0.00181759,-0.00131592 0.0030252,-0.00236011 0.0026214,-0.002267 0.00253589,-0.00344611 0.00333019,-0.0068105 0.000641335,-0.00271831 0.00090262,-0.00568365 0.00104514,-0.0086395 0.000200477,-0.0041549 -0.00119716,-0.0101549 -0.00199051,-0.0144771 -0.000290739,-0.00158386 -0.000581477,-0.00329314 -0.000913071,-0.00484089 -0.000358198,-0.00166937 -0.00052637,-0.00295299 -0.00121806,-0.00434778 -0.00122281,-0.00246178 -0.00223945,-0.00205132 -0.00293589,-0.00231546 -0.000651787,-0.000246083 -0.0018955,-0.00169883 -0.00367699,-0.000585278 -0.00227935,0.00142424 -0.000346796,0.000704994 -0.00365228,0.00175773 -0.000457011,-0.00147365 -6.08081e-005,-0.00428887 0.000133018,-0.00589363 -0.000854163,0.000315442 -0.00212923,0.00121711 -0.00292354,0.00172448 -0.000962478,0.000614732 -0.00177864,0.00131592 -0.00258054,0.00203422 -0.00361428,0.00323803 -0.00401333,0.00805137 -0.0045093,0.0127849 -0.000417105,0.00397913 -0.000929223,0.00906895 -0.00145084,0.0130813 -7.88605e-005,0.000610931 -0.000112115,0.00123801 -0.000206177,0.00188695 -0.000314492,0.00215964 -0.000596679,0.0052523 -0.000846562,0.0075098 -0.000532071,0.00482569 -0.000946326,0.0106148 -0.000473163,0.016003z"/>
     <path id="_741319000" class="fil2" d="M0.0390179 0.0188363c-1.14015e-005,1.99526e-005 -2.09028e-005,3.23043e-005 -2.09028e-005,6.46086e-005 0,2.2803e-005 -0.000124467,0.000644186 -8.36111e-005,0.00154395 8.17108e-005,0.00179384 0.000217579,0.00360668 0.000673639,0.00534921 0.000654637,0.00250453 0.00125322,0.00385181 0.00102424,0.00667179 -0.000342996,0.00422711 -0.000328744,0.00250263 4.37058e-005,0.00685516 0.000198576,0.00232211 2.56534e-005,0.00468507 3.32544e-005,0.00693877 1.90025e-005,0.00588318 0.00116105,0.00836016 0.00369219,0.0121189 0.00183279,0.00272116 0.00422331,0.00584043 0.00440383,0.00944805l8.55114e-006 0.00179669c0.00182044,-0.000123516 0.00170358,0.000515918 0.00671739,-0.000189075 0.00122091,-0.000171973 0.00510218,-0.00100998 0.00658722,-0.00130452 -3.99053e-005,-0.00174443 -0.000568175,-0.00576251 -0.000569126,-0.00728082 -9.50126e-007,-0.00380145 -0.00157531,-0.0104827 -0.00205892,-0.0144362 -0.000142519,-0.001162 -0.00045131,-0.00232116 -0.000587178,-0.00354112 -0.000130167,-0.00117531 -0.000323043,-0.00245228 -0.000498816,-0.00364278 -0.000360098,-0.00242947 -0.000515918,-0.00495206 -0.000775303,-0.00740908l-0.0011259 -0.0111649c-4.08554e-005,-0.000371499 -0.000516869,-0.00540242 -0.000477913,-0.00551643 4.08554e-005,-0.000120666 0.000485514,-0.000723996 0.000636584,0.000848463l0.000420906 0.00382616c0.000310691,-0.0003753 0.000364848,-0.000642285 0.00122946,-0.00163992 -7.60101e-005,-0.000421856 -0.00053017,-0.00164372 -0.000685991,-0.00202757 -0.000908321,-0.00223565 -0.00173208,-0.00247888 -0.00405134,-0.00357913 -0.00125702,-0.000596679 -0.00209978,-0.0011677 -0.0030138,-0.00199812l-0.00309931 -0.00191735c0.000443709,0.00294159 0.000342045,0.00259004 9.88131e-005,0.00546132 -0.000803807,0.000280287 -0.00195346,-0.000949176 -0.00256914,-0.00126177 -0.00120381,-0.000611881 -0.00194491,0.000437058 -0.00277152,0.00101283 -0.000645136,0.000447509 -0.000721146,0.000438958 -0.00158576,0.000610931 -0.000734447,0.000146319 -0.00121141,0.00132923 -0.00129977,0.00177484 -0.000116866,0.000585278 -0.000345846,0.00207032 -0.000295489,0.00258719z"/>
     <path id="_741318448" class="fil2" d="M0.0273275 0.0102652c0.000512118,0.00156106 0.00214348,0.0029872 0.00304515,0.00398388 0.00022518,0.000249883 0.000445609,0.000624233 0.000637535,0.000805707 0.00044846,0.000428507 0.000495966,0.000133968 0.00155251,0.00126082 0.00179669,0.0019145 0.00237722,0.00638675 0.00282472,0.00907846 0.000277437,0.00166462 0.000614732,0.00347746 0.000966278,0.00509553 0.00059953,0.00275632 0.00142329,0.00757916 0.00136343,0.0103269 -0.000214729,0.00987561 -0.00286178,0.0164201 -0.00618532,0.0254425 -0.000556774,0.00150975 -0.00136438,0.00456916 -0.0022841,0.0056827 -0.000389552,0.000471263 -0.00130072,0.000784804 -0.00210928,0.000877917l-0.00514208 0.000328744c0.00308791,0.00082661 0.0052599,0.00171403 0.00880577,0.0022366 0.00384516,0.000567225 0.00615302,0.000706894 0.0105407,-0.000192876 0.00354682,-0.000726846 0.00688936,-0.00166272 0.0102566,-0.00255489 0.00387936,-0.00102899 0.00556869,-0.00195156 0.00902715,-0.00358103 -0.000943475,0.000108314 -0.00213018,0.000415205 -0.00310026,0.00060238 -0.0026024,0.000503567 -0.00531216,0.000988131 -0.00796586,0.000609981 -0.000912121,-0.000130167 -0.0014841,-4.65562e-005 -0.00145654,-0.000665088 2.47033e-005,-0.000560574 0.000121616,-0.000640385 9.7863e-005,-0.00153445 -0.000114015,-0.00429837 -0.00373305,-0.00818724 -0.00587843,-0.0118253 -0.00347176,-0.00588793 -0.00170643,-0.011658 -0.00224895,-0.0169483 -0.000146319,-0.00143089 -0.000358198,-0.00320002 -0.000292639,-0.00458816 6.46086e-005,-0.00136153 0.000390502,-0.00271546 0.000267936,-0.00414065 -0.000361048,-0.00419481 -0.00241997,-0.00596204 -0.0015411,-0.0129987 8.55114e-005,-0.000682191 0.000185275,-0.00125322 0.000314492,-0.00188315 0.000173873,-0.000848463 0.000271736,-0.000650836 0.000481714,-0.00123516 0.000568175,-0.00157436 0.00210263,-0.00240002 0.00250833,-0.00294634l0.00164752 -0.00314397 -0.00383851 -1.04514e-005c-0.0037625,0.000115915 -0.0086737,0.00128837 -0.0122946,0.0019164z"/>
     <path id="_741318616" class="fil2" d="M0.0579092 0.0287499c-7.22096e-005,0.000503567 0.000535871,0.00494351 0.000632784,0.00609791l3.23043e-005 0.00103849c0.000154871,0.00217769 0.000866515,0.00705374 0.00127602,0.0090737 0.000403804,0.00198956 0.000597629,0.00404754 0.00100618,0.00602855 0.000407604,0.00198291 0.000574826,0.00405134 0.000849413,0.00609126 8.74116e-005,0.000643235 0.000763901,0.00140999 0.00122851,0.00209313l0.00132733 0.00202092c0.00129882,-0.000381951 0.00247698,-0.000928273 0.00357437,-0.00153065l0.00367699 -0.00146985c-0.000331594,-0.00295869 -0.00138243,-0.00480574 -0.00256344,-0.00719911 -0.000711644,-0.00144419 -0.00144514,-0.00280572 -0.00207603,-0.00434208 -0.00222995,-0.00542617 -0.00329124,-0.0128495 -0.00501382,-0.0180914 -0.0010993,-0.00334634 -0.00219859,-0.00643995 -0.00338435,-0.00972929 -0.00126272,0.00195536 -0.00139859,0.00174253 -0.00113445,0.00428887 0.000194776,0.0018727 0.000367699,0.00384421 0.000568175,0.0056295z"/>
     <path id="_741318976" class="fil2" d="M0.0168372 0.0310511l0.00106794 0.00769222c1.99526e-005,1.14015e-005 5.03567e-005,2.85038e-006 6.27083e-005,2.94539e-005 4.84564e-005,0.000107364 0.00506797,0.00141379 0.00547748,0.00132828 0.000457961,-9.59627e-005 0.00179004,-0.00113445 0.00234491,-0.00145749l0.00270406 -0.00128077 -0.00135868 -0.00762096c-0.00160476,0.000478864 -0.00835636,0.00117911 -0.0102984,0.00130927z"/>
     <path id="_741319024" class="fil2" d="M0.0206928 0.0666485c0.00120001,0.00134158 0.00216914,0.00171878 0.00389267,0.00252163 0.000741098,0.000344896 0.00150975,0.000630884 0.00219194,0.000994782l0.00209598 0.00121996c0.000402853,-0.00037625 0.000622333,-0.00116866 0.000810458,-0.00174443 0.000208078,-0.000637535 0.000436108,-0.00122186 0.000663188,-0.00185655 0.00136153,-0.00380906 0.00275157,-0.0075212 0.00398198,-0.0113369 -0.000802857,0.000621382 -0.00141569,0.0015316 -0.00311071,0.00273636 -0.00218434,0.00155251 -0.00887513,0.00569981 -0.0105255,0.00746514z"/>
     <path id="_741318520" class="fil2" d="M0.0271109 0.00967798c0.00122756,-0.000117816 0.00261095,-0.00060143 0.00385846,-0.000773403 0.00546228,-0.0007525 0.00687321,-0.00135488 0.0125132,-0.00111925 -0.000734447,-0.00500051 -0.00359338,-0.00200667 -0.00821289,-0.00108029 -0.00201142,0.000403804 -0.00365419,0.000430407 -0.00554114,0.000332544 -0.00107079,-5.60574e-005 -0.00146794,-0.000472213 -0.00215204,0.000358198 -0.000432307,0.00052542 -0.00090357,0.00131212 -0.000465562,0.0022822z"/>
     <path id="_745012864" class="fil2" d="M0.0231584 0.0162339c0.00157056,-0.000446559 0.00374065,-0.00218909 0.00441144,-0.00210833l0.00276867 0.00101663c-0.000737298,-0.000892168 -0.0015316,-0.0015316 -0.00226795,-0.00250168 -0.000185275,-0.000293589 -0.00169693,-0.00324373 -0.00171498,-0.0034062 -7.79103e-005,-0.000688841 0.000133968,-0.00133208 0.000390502,-0.00173968 0.000186225,-0.000295489 0.000266035,-0.0003734 0.000511168,-0.000629934 0.000340145,-0.000357247 7.506e-005,-0.000310691 -0.000427557,-0.000251783 -0.00253304,0.000294539 -0.00329789,0.00344516 -0.00349836,0.00558199 -0.000171973,0.00183374 -0.000229931,0.00202852 -0.000172923,0.00403899z"/>
     <path id="_836464240" class="fil2" d="M0.0402644 0.0139345c0.0018537,-0.000216629 0.00276772,-0.00182234 0.00342045,-0.00178909l0.00344896 0.00130262c-0.000195726,-0.00181949 0.000336345,-0.00242757 -0.00045416,-0.00509268 -0.000609031,-0.00205132 -0.00128077,-0.0018879 -0.00307461,-0.00249218 0.00030404,0.00106509 0.000644186,0.00138813 0.000497866,0.00269171 -0.000356297,0.00317817 -0.00291214,0.00372449 -0.00383851,0.00537961z"/>
     <path id="_836464048" class="fil2" d="M0.00767512 0.0685478c0.000852263,0.000631834 0.00268886,0.00082756 0.00393162,0.000959627l0.00404849 0.000775303 0.00121806 -0.00181759c-0.000569126,-0.000285988 -0.00100143,-0.000540622 -0.00166177,-0.000808557 -0.000643235,-0.000261285 -0.00120001,-0.00044846 -0.0019145,-0.000586228 -0.00082566,-0.000124467 -0.00397723,-0.000509268 -0.00469172,-0.000429457 -0.000682191,7.69602e-005 -0.000954877,0.00126462 -0.000930173,0.0019069z"/>
     <path id="_836464192" class="fil2" d="M0.0634979 0.0619976l0.00194776 0.00214729c0.00133493,-0.00116675 0.00206557,-0.00175488 0.00413875,-0.00222234 0.000965328,-0.000216629 0.00194301,-0.000239432 0.0026233,-0.000734447 0.00190785,-0.00138718 0.000623283,-0.0029872 -0.00183089,-0.00214158 -0.001524,0.00052447 -0.00439908,0.0026252 -0.00687891,0.00295109z"/>
     <path id="_827784376" class="fil2" d="M0.0212648 0.0726571c0.0011335,-0.000309741 0.00242187,-0.00052827 0.00362853,-0.00045226l0.0034138 -0.000281237c-0.000189075,-0.000502617 -0.00137958,-0.000989081 -0.0018556,-0.00124276 -0.000709744,-0.0003772 -0.00140429,-0.000609031 -0.00213683,-0.000957727 -0.00209313,-0.000996682 -0.00209693,-0.000930173 -0.0037948,-0.00229931l0.000744899 0.00523329z"/>
     <path id="_355458184" class="fil3" d="M0.041663 0.0428507c-0.00123326,0.000467462 -0.000485514,0.00230121 0.00067459,0.00185085 0.00123326,-0.000478864 0.000571026,-0.00232306 -0.00067459,-0.00185085z"/>
     <path id="_827784448" class="fil3" d="M0.0416915 0.03511l-9.40625e-005 1.14015e-005c-0.000983381,0.000110215 -0.000990982,0.0018632 0.000209028,0.00181949 0.00128267,-4.56061e-005 0.00108884,-0.00196581 -0.000114965,-0.00183089z"/>
     <path id="_740910344" class="fil3" d="M0.0429638 0.0523596l0.000833261 -0.00115155c-0.00030499,-0.000243232 -0.000740148,-0.000784804 -0.0011411,-0.000739198 -0.0010974,0.000122566 -0.00102329,0.00204087 0.000307841,0.00189075z"/>
     <path id="_827784304" class="fil1" d="M0.0415614 0.0288781c0.00120381,-0.000135868 0.000974829,-0.00179289 -0.000115915,-0.00173968 -0.0011449,5.60574e-005 -0.00101949,0.001867 0.000115915,0.00173968z"/>
     <line id="_827784280" class="fil3" x1="0.0390179" y1="0.0188363" x2="0.0390179" y2= "0.0188363" />
    </g>
   </g>
  </g>
  <polygon class="fil4" points="-0,0 0.0804443,0 0.0804443,0.0804443 -0,0.0804443 "/>
 </g>
</svg>
